<svg xmlns="http://www.w3.org/2000/svg" viewBox="0 0 512 512">
    <linearGradient id="a" x1="135.928" x2="391.433" y1="385.918" y2="130.413" gradientTransform="matrix(1 0 0 -1 0 514.22)" gradientUnits="userSpaceOnUse">
        <stop offset="0" stop-color="#38acff"/>
        <stop offset="1" stop-color="#0051b5"/>
    </linearGradient>
    <path fill="url(#a)" d="M241.1 493.9v-50.2c-21.8-2.2-41.3-7.9-58.5-17.2S152 404 142.2 386.9s-14.5-38.3-14.1-63.6l.5-1.2h85.8c0 13.5 2 24.5 6 32.9s9.5 14.6 16.5 18.5 15.1 5.9 24.3 5.9c7.5 0 13.8-1.5 18.8-4.6s8.8-7.4 11.2-12.9 3.8-11.8 3.8-19c0-8.5-1.3-15.7-3.9-21.5s-6.8-11-12.8-15.6c-5.9-4.6-14-9.1-24.4-13.6-26-10.3-47.4-20.7-64.1-31-16.8-10.3-29.1-22.4-37.1-36.3s-12-31.2-12-52c0-28.3 9.6-51.6 28.8-69.9s44.8-28.9 76.8-31.9v-53h40v54c30 4.5 53.8 16.8 71.4 37s26.1 45.9 25.6 77.2l.8 2h-86.8c0-17.8-3.4-31-10.1-39.6-6.8-8.6-15.5-12.9-26.4-12.9-10.8 0-19.4 3.5-24.8 10.5-5.3 7-8 16.1-8 27.2 0 7.3 1.2 13.7 3.6 19.1s6.6 10.4 12.6 14.9 14.2 9.1 24.8 13.8c25.7 11.2 46.9 22.1 63.8 32.8 16.8 10.7 29.4 22.9 37.6 36.6s12.4 30.9 12.4 51.4c0 28.8-9.2 52.1-27.5 69.8s-42.9 28.1-73.8 31.2v50.8z"/>
</svg>